<svg width="55" height="47" viewBox="0 0 55 47" fill="none" xmlns="http://www.w3.org/2000/svg">
<g clip-path="url(#clip0_151_406)">
<path d="M26.0184 15.5079C28.9054 9.20763 36.3175 6.76737 39.9922 2.46289C36.0087 10.3325 32.7502 10.9993 26.0184 15.5079Z" fill="#4CA71E"/>
<path d="M30.1274 39.7562H39.7774C40.5518 38.976 41.4022 38.1641 42.266 37.3386C44.0743 35.6014 45.9676 33.7916 47.9102 31.5237C50.1302 28.9292 50.3674 28.0311 51.0433 25.4911C51.1731 25.0148 51.3118 24.4796 51.4954 23.8128L52.6501 19.7034L52.6636 19.6581C53.2812 17.8256 53.3305 16.6191 53.0754 15.9206C52.9948 15.7074 52.8963 15.5622 52.7755 15.4897C52.6815 15.4261 52.5606 15.4035 52.4308 15.4171C52.1309 15.4488 51.7908 15.6393 51.4819 15.9841L48.0534 24.2574C48.0221 24.3345 47.9773 24.4025 47.9281 24.466C47.7266 24.8379 47.4536 25.1963 47.1 25.541L41.0262 32.4127C40.695 32.7892 40.1265 32.821 39.764 32.4853C39.3925 32.1497 39.3612 31.5736 39.6924 31.2062L45.7751 24.3345C45.802 24.3027 45.8289 24.271 45.8602 24.2438C46.4913 23.636 46.6882 22.9783 46.5763 22.502C46.5405 22.3569 46.4779 22.2299 46.3928 22.1437C46.3078 22.0666 46.2004 22.0121 46.0616 22.0031C45.52 21.9441 44.7233 22.3523 43.7476 23.518C43.7207 23.5498 43.6894 23.5815 43.658 23.6133L41.2992 25.7224L41.2858 25.736C38.7345 28.1808 37.6379 28.7614 35.6372 29.8228C35.2209 30.045 34.7599 30.2854 34.1915 30.5984C33.9677 30.7254 33.7484 30.8751 33.5291 31.0384C33.3008 31.2153 33.0815 31.4013 32.8711 31.5781C31.8148 32.4808 31.2598 33.211 30.942 34.0184C30.6108 34.8575 30.4944 35.8781 30.3288 37.2797C30.2616 37.8466 30.2124 38.4045 30.1766 38.9624C30.1542 39.2255 30.1408 39.4931 30.1274 39.7562ZM24.8726 39.7562H15.2181C14.4438 38.976 13.5933 38.1641 12.7295 37.3386C10.9167 35.6014 9.02791 33.7916 7.08537 31.5237C4.86531 28.9292 4.62809 28.0311 3.95223 25.4911C3.8269 25.0148 3.68815 24.4796 3.50464 23.8128L2.34985 19.7034L2.33642 19.6581C1.71875 17.8256 1.66951 16.6191 1.92464 15.9206C2.00521 15.7074 2.10368 15.5622 2.22453 15.4897C2.31852 15.4261 2.43937 15.4035 2.56917 15.4171C2.87353 15.4443 3.2137 15.6393 3.52254 15.9795L6.95109 24.2528C6.98242 24.3299 7.02718 24.398 7.07641 24.4615C7.27783 24.8334 7.55086 25.1917 7.90446 25.5365L13.9827 32.4082C14.314 32.7847 14.8824 32.8164 15.245 32.4808C15.6165 32.1451 15.6478 31.5691 15.3166 31.2017L9.22933 24.3209C9.20247 24.2891 9.17562 24.2574 9.14429 24.2301C8.51318 23.6223 8.31624 22.9647 8.42814 22.4884C8.46395 22.3433 8.52661 22.2162 8.61165 22.1301C8.69669 22.053 8.80412 21.9985 8.94287 21.9895C9.48445 21.9305 10.2856 22.3387 11.2569 23.5044C11.2838 23.5362 11.3151 23.5679 11.3464 23.5997L13.7052 25.7088L13.7187 25.7224C16.2699 28.1672 17.3665 28.7478 19.3673 29.8092C19.7835 30.0314 20.2445 30.2718 20.813 30.5848C21.0368 30.7118 21.2561 30.8615 21.4754 31.0248C21.7037 31.2017 21.923 31.3876 22.1334 31.5645C23.1897 32.4672 23.7447 33.1974 24.0625 34.0048C24.3937 34.8439 24.5101 35.8645 24.6757 37.266C24.7428 37.833 24.7921 38.3909 24.8279 38.9488C24.8458 39.2255 24.8592 39.4931 24.8726 39.7562ZM12.9712 40.0692C12.8324 40.2279 12.7519 40.4411 12.7519 40.6679V46.0882C12.7519 46.5917 13.1592 46.9999 13.6515 46.9999H25.7992C26.296 46.9999 26.6988 46.5871 26.6988 46.0882C26.6988 43.6978 26.7883 41.2122 26.6227 38.8354C26.5824 38.2412 26.5287 37.6516 26.4661 37.0665C26.2915 35.5334 26.1572 34.413 25.7365 33.338C25.3023 32.2358 24.5996 31.2833 23.3016 30.172C23.0644 29.9679 22.8227 29.7593 22.5675 29.5688C22.299 29.3647 22.0081 29.1651 21.6813 28.9837C21.1532 28.6934 20.6608 28.4303 20.2087 28.1899C18.3602 27.2056 17.3442 26.6704 14.963 24.3844C14.9451 24.3662 14.9227 24.3481 14.9048 24.3345L12.6042 22.2752C11.1987 20.6106 9.82462 20.0572 8.77278 20.1706H8.76831C8.25358 20.225 7.81046 20.4291 7.46134 20.7421L5.13387 15.1404H5.12939C5.09359 15.0587 5.04883 14.9862 4.99064 14.9136C4.34611 14.1334 3.53149 13.6753 2.75268 13.5982C2.22005 13.5438 1.70532 13.6617 1.25325 13.9565C0.828042 14.2378 0.474445 14.6732 0.255125 15.2765C-0.134279 16.3242 -0.125327 17.9526 0.635577 20.2069L1.78141 24.2936C1.94702 24.8833 2.09472 25.4503 2.229 25.9492C2.97648 28.7841 3.24056 29.7865 5.73812 32.6985C7.71647 35.0072 9.65006 36.8624 11.5076 38.6449C11.991 39.1257 12.4744 39.5884 12.9712 40.0692ZM24.895 41.5796V45.1765H14.5467V41.5796C17.9887 41.5796 21.4486 41.5796 24.895 41.5796ZM42.0288 40.0692C42.1631 40.2279 42.2481 40.4411 42.2481 40.6679V46.0882C42.2481 46.5917 41.8453 46.9999 41.3485 46.9999H29.2053C28.7085 46.9999 28.3057 46.5871 28.3057 46.0882C28.3057 43.6933 28.2251 41.2258 28.3818 38.8354C28.422 38.2412 28.4757 37.6516 28.5384 37.0665C28.713 35.5334 28.8472 34.413 29.268 33.338C29.7021 32.2358 30.4049 31.2833 31.7029 30.172C31.9401 29.9679 32.1818 29.7593 32.4369 29.5688C32.7055 29.3647 32.9964 29.1651 33.3232 28.9837C33.8513 28.6934 34.3437 28.4303 34.7957 28.1899C36.6443 27.2056 37.6603 26.6704 40.0415 24.3844C40.0594 24.3662 40.0818 24.3481 40.0997 24.3345L42.4003 22.2752C43.8057 20.6106 45.1798 20.0572 46.2317 20.1706H46.2362C46.7509 20.225 47.194 20.4291 47.5431 20.7421L49.8661 15.1359H49.8706C49.9064 15.0542 49.9512 14.9816 50.0094 14.9091C50.6539 14.1289 51.4685 13.6708 52.2473 13.5937C52.7799 13.5393 53.2947 13.6572 53.7467 13.952C54.172 14.2332 54.5256 14.6687 54.7449 15.2719C55.1343 16.3197 55.1253 17.9481 54.3644 20.2024L53.2186 24.2891C53.053 24.8788 52.9053 25.4457 52.771 25.9447C52.0235 28.7796 51.7594 29.782 49.2619 32.694C47.2835 35.0027 45.3499 36.8578 43.4924 38.6404C43.009 39.1257 42.5212 39.5884 42.0288 40.0692ZM30.105 41.5796V45.1765H40.4533V41.5796C37.0068 41.5796 33.5559 41.5796 30.105 41.5796Z" fill="#474747"/>
<path d="M23.87 17.2497C22.9927 18.4335 22.2408 19.4178 21.8335 20.5517C21.4351 21.6539 21.274 22.1574 22.1781 21.0144C23.0196 19.9485 23.8073 18.9143 24.9577 17.9346C25.0382 17.9572 25.1277 17.9709 25.2173 17.989C35.6237 20.0845 43.2059 15.3401 41.8721 0C33.8602 2.81673 22.5004 1.66918 23.6775 16.0885C23.7223 16.6237 23.7626 16.9911 23.87 17.2497ZM26.3362 15.1768C29.0576 9.2349 36.0534 7.19832 39.5223 3.13424C35.7625 10.5639 32.6876 10.9268 26.3362 15.1768Z" fill="#89BF3F"/>
</g>
<defs>
<clipPath id="clip0_151_406">
<rect width="55" height="47" fill="white"/>
</clipPath>
</defs>
</svg>
